<svg width="500" height="500" viewBox="0 0 500 500" fill="none" xmlns="http://www.w3.org/2000/svg">
<rect width="500" height="500" fill="#1E1E1E"/>
<rect width="500" height="500" fill="black"/>
<path d="M249.931 245V208.2H231.499V198.92H277.579V208.2H259.211V245H249.931Z" fill="white"/>
<path d="M283.672 245C281.965 245 280.408 244.595 279 243.784C277.635 242.931 276.525 241.821 275.672 240.456C274.861 239.048 274.456 237.491 274.456 235.784V208.136C274.456 206.429 274.861 204.893 275.672 203.528C276.525 202.12 277.635 201.011 279 200.2C280.408 199.347 281.965 198.92 283.672 198.92H311.32C312.984 198.92 314.499 199.347 315.864 200.2C317.272 201.011 318.403 202.12 319.256 203.528C320.109 204.893 320.536 206.429 320.536 208.136V235.784C320.536 237.491 320.109 239.048 319.256 240.456C318.403 241.821 317.272 242.931 315.864 243.784C314.499 244.595 312.984 245 311.32 245H283.672ZM284.056 235.72H310.808C310.936 235.72 311.021 235.699 311.064 235.656C311.149 235.571 311.192 235.464 311.192 235.336V208.584C311.192 208.456 311.149 208.371 311.064 208.328C311.021 208.243 310.936 208.2 310.808 208.2H284.056C283.928 208.2 283.821 208.243 283.736 208.328C283.693 208.371 283.672 208.456 283.672 208.584V235.336C283.672 235.464 283.693 235.571 283.736 235.656C283.821 235.699 283.928 235.72 284.056 235.72Z" fill="white"/>
<path d="M232.397 292V245.92H242.189L258.317 265.184L274.381 245.92H284.237V292H274.957V259.68L258.317 279.584L241.613 259.744V292H232.397Z" fill="white"/>
<path d="M276.712 292V245.92H319.208V255.2H286.056V264.288H312.744V273.632H286.056V282.72H319.208V292H276.712Z" fill="white"/>
<rect x="209" y="295" width="111" height="17" fill="white"/>
<rect x="209" y="179" width="111" height="17" fill="white"/>
<rect x="209" y="196" width="20" height="99" fill="white"/>
<path d="M238.01 312V294.72H241.682L251.786 306.768V294.72H255.29V312H251.618L241.466 299.904V312H238.01Z" fill="black"/>
<path d="M257.854 312V294.72H273.79V298.2H261.358V301.608H271.366V305.112H261.358V308.52H273.79V312H257.854Z" fill="black"/>
<path d="M279.452 312C278.828 312 278.252 311.848 277.724 311.544C277.196 311.224 276.78 310.808 276.476 310.296C276.172 309.768 276.02 309.184 276.02 308.544V307.08H279.476V308.376C279.476 308.424 279.484 308.464 279.5 308.496C279.532 308.512 279.564 308.52 279.596 308.52H289.652C289.684 308.52 289.716 308.512 289.748 308.496C289.78 308.464 289.796 308.424 289.796 308.376V305.232C289.796 305.2 289.78 305.176 289.748 305.16C289.716 305.128 289.684 305.112 289.652 305.112H279.452C278.828 305.112 278.252 304.96 277.724 304.656C277.196 304.336 276.78 303.912 276.476 303.384C276.172 302.856 276.02 302.28 276.02 301.656V298.176C276.02 297.536 276.172 296.96 276.476 296.448C276.78 295.92 277.196 295.504 277.724 295.2C278.252 294.88 278.828 294.72 279.452 294.72H289.844C290.468 294.72 291.036 294.88 291.548 295.2C292.076 295.504 292.5 295.92 292.82 296.448C293.14 296.96 293.3 297.536 293.3 298.176V299.64H289.796V298.344C289.796 298.296 289.78 298.264 289.748 298.248C289.716 298.216 289.684 298.2 289.652 298.2H279.596C279.564 298.2 279.532 298.216 279.5 298.248C279.484 298.264 279.476 298.296 279.476 298.344V301.488C279.476 301.52 279.484 301.552 279.5 301.584C279.532 301.6 279.564 301.608 279.596 301.608H289.844C290.468 301.608 291.036 301.768 291.548 302.088C292.076 302.392 292.5 302.808 292.82 303.336C293.14 303.864 293.3 304.44 293.3 305.064V308.544C293.3 309.184 293.14 309.768 292.82 310.296C292.5 310.808 292.076 311.224 291.548 311.544C291.036 311.848 290.468 312 289.844 312H279.452Z" fill="black"/>
<path d="M301.937 312V298.2H295.025V294.72H312.305V298.2H305.417V312H301.937Z" fill="black"/>
</svg>
